<svg width="495" height="495" viewBox="0 0 495 495" fill="none" xmlns="http://www.w3.org/2000/svg">
<g clip-path="url(#clip0_108_296)">
<rect x="51.6367" y="131.762" width="398.849" height="292.014" fill="#001B82"/>
<path d="M440.002 110H339.627L325.052 72.5996C323.058 67.4313 319.549 62.9859 314.986 59.8454C310.422 56.705 305.017 55.0159 299.477 54.9996H195.527C189.964 54.9882 184.528 56.6643 179.937 59.8065C175.347 62.9488 171.817 67.4095 169.814 72.5996L155.377 110H55.002C47.7085 110 40.7138 112.897 35.5565 118.054C30.3993 123.211 27.502 130.206 27.502 137.5V412.5C27.502 419.793 30.3993 426.788 35.5565 431.945C40.7138 437.102 47.7085 440 55.002 440H440.002C447.295 440 454.29 437.102 459.447 431.945C464.605 426.788 467.502 419.793 467.502 412.5V137.5C467.502 130.206 464.605 123.211 459.447 118.054C454.29 112.897 447.295 110 440.002 110ZM440.002 412.5H55.002V137.5H174.214L195.527 82.4996H299.477L320.789 137.5H440.002V412.5Z" fill="#001B82"/>
<path d="M121.969 280.837C121.969 305.312 129.227 329.238 142.824 349.589C156.422 369.939 175.749 385.801 198.362 395.167C220.974 404.533 245.856 406.984 269.861 402.209C293.866 397.434 315.916 385.648 333.223 368.341C350.53 351.035 362.316 328.984 367.091 304.979C371.866 280.974 369.415 256.092 360.049 233.48C350.683 210.867 334.821 191.54 314.471 177.943C294.12 164.345 270.194 157.087 245.719 157.087C212.898 157.087 181.422 170.125 158.214 193.332C135.007 216.54 121.969 248.016 121.969 280.837ZM347.469 280.837C347.469 300.961 341.501 320.633 330.321 337.366C319.14 354.099 303.249 367.14 284.657 374.842C266.064 382.543 245.606 384.558 225.868 380.632C206.131 376.706 188.001 367.015 173.771 352.785C159.541 338.555 149.85 320.425 145.924 300.687C141.998 280.95 144.013 260.491 151.714 241.899C159.415 223.306 172.457 207.415 189.189 196.235C205.922 185.054 225.595 179.087 245.719 179.087C272.693 179.123 298.553 189.855 317.627 208.929C336.701 228.003 347.432 253.862 347.469 280.837Z" fill="#FFFF4B"/>
<path d="M116.375 162.168C116.375 159.251 115.216 156.453 113.153 154.39C111.09 152.327 108.292 151.168 105.375 151.168H72.375C69.4576 151.168 66.6597 152.327 64.5968 154.39C62.5339 156.453 61.375 159.251 61.375 162.168C61.375 165.085 62.5339 167.883 64.5968 169.946C66.6597 172.009 69.4576 173.168 72.375 173.168H105.375C108.292 173.168 111.09 172.009 113.153 169.946C115.216 167.883 116.375 165.085 116.375 162.168Z" fill="#FFFF4B"/>
<path d="M167.895 280.835C168.049 295.337 172.318 309.497 180.205 321.667C188.091 333.838 199.271 343.519 212.445 349.585L224.132 330.748C216.259 328.111 209.084 323.726 203.147 317.921C197.21 312.116 192.665 305.043 189.851 297.231C187.038 289.418 186.03 281.071 186.902 272.814C187.775 264.556 190.506 256.604 194.891 249.553C199.275 242.501 205.199 236.534 212.218 232.099C219.238 227.664 227.17 224.875 235.421 223.943C243.671 223.01 252.026 223.958 259.858 226.714C267.691 229.471 274.797 233.965 280.645 239.86L292.47 220.885C281.213 211.765 267.597 206.031 253.207 204.351C238.817 202.671 224.246 205.115 211.191 211.397C198.136 217.68 187.136 227.542 179.47 239.836C171.805 252.129 167.79 266.348 167.895 280.835Z" fill="#FFFF4B"/>
<rect x="178.057" y="78.3452" width="140.665" height="58.759" fill="#001B82"/>
</g>
<defs>
<clipPath id="clip0_108_296">
<rect width="495" height="495" fill="white"/>
</clipPath>
</defs>
</svg>
