<svg width="395" height="395" viewBox="0 0 395 395" fill="none" xmlns="http://www.w3.org/2000/svg">
<g clip-path="url(#clip0_110_307)">
<path d="M386.59 305.276L296.25 214.936C278.428 197.114 251.812 193.643 230.365 204.212L148.125 121.972V74.0625L49.3745 0L-0.000488868 49.375L74.062 148.125H121.971L204.211 230.365C193.719 251.813 197.114 278.429 214.935 296.25L305.276 386.591C316.54 397.854 334.747 397.854 345.933 386.591L386.59 345.934C397.777 334.67 397.777 316.463 386.59 305.276ZM255.901 173.584C277.734 173.584 298.255 182.07 313.685 197.5L328.652 212.467C340.841 207.144 352.414 199.737 362.443 189.708C391.065 161.086 400.786 120.814 391.682 84.2461C389.985 77.3027 381.267 74.9111 376.175 80.0029L318.777 137.401L266.393 128.684L257.675 76.2998L315.074 18.9014C320.166 13.8096 317.697 5.0918 310.676 3.31738C274.108 -5.70898 233.836 4.01172 205.292 32.5566C183.304 54.5439 172.966 83.5518 173.506 112.482L236.845 175.821C243.094 174.355 249.575 173.584 255.901 173.584ZM175.744 236.846L132 193.103L14.4263 310.754C-4.86084 330.041 -4.86084 361.286 14.4263 380.573C33.7134 399.86 64.9585 399.86 84.2456 380.573L179.601 285.218C173.738 269.865 171.963 253.124 175.744 236.846ZM49.3745 364.141C39.1909 364.141 30.8589 355.809 30.8589 345.625C30.8589 335.364 39.1138 327.109 49.3745 327.109C59.6353 327.109 67.8901 335.364 67.8901 345.625C67.8901 355.809 59.6353 364.141 49.3745 364.141Z" fill="#001B82"/>
<circle cx="48.0389" cy="345.18" r="19.5721" fill="#FFFF4B"/>
</g>
<defs>
<clipPath id="clip0_110_307">
<rect width="395" height="395" fill="white"/>
</clipPath>
</defs>
</svg>
