<svg width="442" height="480" viewBox="0 0 442 480" fill="none" xmlns="http://www.w3.org/2000/svg">
<path d="M170.674 40.2505C195.798 40.2505 219.677 45.6842 241.146 55.465C230.786 64.6712 223.907 77.1723 221.665 90.8649C195.841 79.8844 167.175 77.532 139.912 84.1562C112.649 90.7804 88.2415 106.029 70.3045 127.642C52.3674 149.256 41.8555 176.084 40.3262 204.153C38.7969 232.222 46.3315 260.038 61.8137 283.48C77.2959 306.922 99.902 324.743 126.283 334.302C152.664 343.861 181.416 344.65 208.279 336.552C235.142 328.454 258.688 311.9 275.427 289.342C292.167 266.785 301.209 239.424 301.215 211.313L301.115 205.899C311.88 215.559 325.998 221.295 341.101 221.376C339.104 256.302 326.418 289.765 304.77 317.211L378.114 390.707C381.773 394.503 383.797 399.587 383.751 404.863C383.706 410.14 381.593 415.188 377.87 418.919C374.146 422.65 369.109 424.767 363.843 424.813C358.578 424.858 353.504 422.83 349.717 419.164L276.372 345.668C254.993 362.551 229.895 374.067 203.171 379.254C176.448 384.441 148.874 383.149 122.75 375.486C96.626 367.823 72.7094 354.011 52.9956 335.202C33.2818 316.393 18.3423 293.133 9.42348 267.362C0.504668 241.591 -2.13487 214.057 1.72509 187.056C5.58504 160.054 15.8326 134.37 31.6127 112.144C47.3929 89.9189 68.2482 71.797 92.4387 59.2907C116.629 46.7843 143.453 40.256 170.674 40.2505ZM170.674 100.625C189.291 100.625 206.844 105.254 222.248 113.405C224.447 123.576 229.232 133.005 236.14 140.777C243.047 148.548 251.842 154.399 261.671 157.76L268.66 160.155C279.804 181.58 283.645 206.07 279.599 229.888C275.553 253.706 263.842 275.543 246.252 292.066C228.662 308.59 206.16 318.893 182.18 321.402C158.2 323.911 134.059 318.489 113.442 305.964C92.825 293.438 76.8638 274.497 67.9945 252.031C59.1252 229.565 57.835 204.808 64.3207 181.538C70.8064 158.268 84.7118 137.764 103.915 123.154C123.118 108.545 146.563 100.633 170.674 100.625ZM341.382 20.1255C345.139 20.1255 348.821 21.1816 352.009 23.1738C355.197 25.1661 357.764 28.0145 359.417 31.3955L360.381 33.7501L362.992 41.3574C365.747 49.4513 370.187 56.8663 376.018 63.1113C381.848 69.3564 388.936 74.2889 396.812 77.5824L400.527 78.9911L408.119 81.5872C411.878 82.8725 415.173 85.2459 417.586 88.4075C420 91.5691 421.423 95.3768 421.677 99.3491C421.93 103.321 421.003 107.28 419.011 110.724C417.02 114.168 414.054 116.943 410.489 118.698L408.119 119.664L400.527 122.28C392.45 125.041 385.051 129.49 378.819 135.333C372.586 141.176 367.664 148.278 364.378 156.171L362.972 159.894L360.381 167.501C359.096 171.267 356.726 174.567 353.569 176.983C350.413 179.399 346.613 180.824 342.649 181.076C338.685 181.328 334.736 180.396 331.3 178.399C327.864 176.402 325.097 173.429 323.347 169.855L322.383 167.501L319.772 159.894C317.017 151.8 312.577 144.385 306.746 138.14C300.916 131.895 293.828 126.962 285.952 123.669L282.237 122.26L274.645 119.664C270.886 118.379 267.591 116.005 265.178 112.843C262.765 109.682 261.341 105.874 261.087 101.902C260.834 97.9296 261.761 93.9712 263.753 90.5271C265.744 87.0831 268.71 84.3082 272.275 82.5532L274.645 81.5872L282.237 78.971C290.314 76.2098 297.713 71.7606 303.946 65.9181C310.178 60.0755 315.1 52.9728 318.387 45.0805L319.792 41.3574L322.383 33.7501C323.736 29.7772 326.295 26.3277 329.702 23.8846C333.109 21.4415 337.193 20.1272 341.382 20.1255Z" fill="#001B82"/>
<path fill-rule="evenodd" clip-rule="evenodd" d="M353.188 9.58603C348.542 -3.19534 330.513 -3.19534 325.866 9.58603L304.784 67.6659L246.824 88.7925C234.069 93.4482 234.069 111.515 246.824 116.171L304.784 137.297L325.866 195.377C330.513 208.158 348.542 208.158 353.188 195.377L374.271 137.297L432.23 116.171C444.985 111.515 444.985 93.4482 432.23 88.7925L374.271 67.6659L353.188 9.58603Z" fill="#FFFF4B"/>
</svg>
