<svg width="542" height="543" viewBox="0 0 542 543" fill="none" xmlns="http://www.w3.org/2000/svg">
<path d="M270.999 475.126C225.803 475.126 188.156 459.582 158.06 428.495C127.964 397.409 112.916 358.652 112.916 312.226C112.916 281.425 124.659 247.609 148.146 210.775C171.633 173.942 207.111 133.601 254.581 89.7539C259.068 85.3496 264.45 83.057 270.728 82.876C277.007 82.695 282.381 84.8066 286.853 89.211C291.52 93.7058 296.112 98.0498 300.629 102.243C305.145 106.436 309.662 110.742 314.179 115.162C303.595 128.511 294.185 143.36 285.949 159.71C277.729 176.046 273.619 192.947 273.619 210.413C273.619 245.949 285.535 275.89 309.368 300.234C333.216 324.594 361.83 336.774 395.208 336.774C400.658 336.774 406.183 336.314 411.784 335.394C417.384 334.489 422.82 333.176 428.089 331.457C423.633 373.026 406.853 407.364 377.751 434.468C348.648 461.573 313.065 475.126 270.999 475.126ZM347.015 261.41C333.977 247.141 327.458 230.142 327.458 210.413C327.458 197.818 332.11 183.836 341.414 168.466C350.718 153.096 365.187 135.713 384.819 116.316C387.725 113.495 391.188 112.085 395.208 112.085C399.228 112.085 402.69 113.495 405.596 116.316C425.77 136.18 440.374 153.473 449.408 168.195C458.441 182.916 462.958 196.989 462.958 210.413C462.958 230.142 456.446 247.141 443.423 261.41C430.385 275.679 414.313 282.813 395.208 282.813C376.102 282.813 360.038 275.679 347.015 261.41ZM275.9 422.907C279.257 422.53 281.892 421.399 283.804 419.513C285.686 417.598 286.627 415.252 286.627 412.477C286.627 409.219 285.513 406.715 283.285 404.965C281.056 403.216 278.324 402.53 275.087 402.907C259.655 404.038 242.416 399.211 223.371 388.427C204.311 377.657 192.522 359.632 188.006 334.353C187.253 330.793 186.003 328.131 184.257 326.366C182.495 324.601 180.275 323.719 177.595 323.719C174.629 323.719 172.107 324.828 170.029 327.045C167.952 329.262 167.327 332.581 168.155 337C173.981 368.403 188.457 390.878 211.583 404.422C234.708 417.967 256.147 424.129 275.9 422.907Z" fill="#001B82"/>
<path d="M347.743 263.206C334.705 248.937 328.186 231.938 328.186 212.209C328.186 199.614 332.838 185.632 342.143 170.262C351.447 154.892 365.915 137.509 385.548 118.112C388.454 115.291 391.916 113.881 395.936 113.881C399.956 113.881 403.419 115.291 406.325 118.112C426.499 137.976 441.103 155.269 450.136 169.991C459.17 184.712 463.686 198.785 463.686 212.209C463.686 231.938 457.175 248.937 444.152 263.206C431.113 277.475 415.042 284.609 395.936 284.609C376.831 284.609 360.766 277.475 347.743 263.206ZM276.628 424.703C279.986 424.326 282.621 423.195 284.533 421.309C286.415 419.394 287.356 417.048 287.356 414.273C287.356 411.015 286.241 408.511 284.013 406.761C281.785 405.012 279.052 404.325 275.815 404.702C260.383 405.834 243.145 401.007 224.1 390.222C205.039 379.453 193.251 361.428 188.734 336.149C187.981 332.589 186.732 329.927 184.985 328.162C183.224 326.397 181.003 325.515 178.323 325.515C175.357 325.515 172.835 326.624 170.758 328.841C168.68 331.058 168.055 334.376 168.883 338.796C174.71 370.199 189.186 392.674 212.311 406.218C235.436 419.763 256.876 425.925 276.628 424.703Z" fill="#FFFF4B"/>
</svg>
