<svg width="1536" height="1024" viewBox="0 0 1536 1024" fill="none" xmlns="http://www.w3.org/2000/svg">
<path d="M258.207 402.418C256.064 386.048 257.061 360.614 258.972 344.233C260.649 329.846 277.185 317.729 290.865 317.309C312.993 315.65 327.925 320.287 337.533 340.828C353.344 335.63 366.917 334.394 381.369 343.841C382.161 341.951 383.094 338.825 385.197 338.735C407.61 337.787 449.568 337.368 470.866 338.285C470.805 333.975 469.881 321.311 472.179 318.498C478.162 316.747 487.29 317.419 493.707 317.497C515.104 317.758 514.498 319.074 514.297 338.093C549.409 334.041 563.531 346.788 562.331 381.837L554.515 385.471C564.738 398.394 565.556 406.213 564.678 422.282C563.021 452.731 511.651 451.165 498.423 430.877C490.899 419.339 492.773 406.556 492.727 393.715C494.395 392.169 496.374 390.43 497.943 388.832C492.267 381.344 494.289 375.836 485.035 376.621C484.131 393.878 480.129 411.958 478.685 428.862C476.247 457.389 469.17 467.494 438.561 466.462C429.722 466.164 425.505 461.618 420.785 454.656L420.461 443.719C402.61 443.87 384.675 444.174 366.847 443.408C363.146 443.249 355.027 445.873 352.13 445.386C341.073 443.526 339.717 440.74 328.521 444.336C327.314 444.724 313.075 442.662 309.643 442.734C308.384 443.78 307.881 444.456 306.401 444.936C302.928 443.648 297.141 443.311 293.491 444.093C291.762 444.038 289.272 443.374 287.502 442.987C275.118 441.348 262.513 429.925 259.206 417.804C259.529 415.598 259.499 415.677 259.058 413.469L258.739 407.552C258.753 406.053 258.411 403.966 258.207 402.418ZM420.079 430.705C423.885 430.275 427.982 429.733 431.775 429.499L433.202 429.075C433.019 425.549 431.148 417.481 430.402 413.489L425.279 384.857C423.57 383.794 422.792 384.04 420.669 384.1C420.108 399.423 420.186 415.326 420.079 430.705Z" fill="#001B82"/>
<path d="M293.103 324.474C295.188 324.364 297.276 324.297 299.364 324.273C327.992 324.228 326.454 342.878 326.053 364.647L303.83 364.66C304.009 358.757 304.833 351.936 303.707 346.162C303.271 343.933 302.55 341.846 300.549 340.591C299.379 339.857 297.758 339.654 296.419 340.052C294.894 340.505 293.741 341.693 293.032 343.082C290.875 347.311 290.64 407.172 292.749 412.281C293.444 413.963 294.539 415.15 296.316 415.664C297.851 416.108 299.775 415.992 301.128 415.102C303.268 413.695 304.08 410.967 304.466 408.57C305.291 403.441 305.667 393.928 302.549 389.513C300.816 389.28 300.785 389.337 299.124 388.551C298.293 384.517 298.642 377.375 298.698 373.027L309.804 373.031L326.002 372.948C325.886 390.637 325.122 413.065 326.044 430.402C322.882 430.495 320.256 430.505 317.096 430.393C314.328 428.689 316.64 428.672 314.704 424.786C309.314 427.251 307.188 430.15 300.731 431.472C293.263 433.105 282.03 431.413 275.635 426.992C268.045 421.745 267.095 406.652 267.202 398.498C267.423 381.656 266.459 365.001 267.885 348.245C268.26 343.834 270.322 337.22 273.001 333.572C277.888 327.598 285.768 325.477 293.103 324.474Z" fill="#F9F900"/>
<path d="M355.998 344.04C385.761 341.629 380.774 368.108 380.987 388.34C381.134 402.135 379.93 417.004 382.718 430.499C377.411 430.36 371.561 431.252 366.703 430.565C363.32 430.088 363.029 426.334 361.757 424.067C352.224 434.142 337.342 436.509 332.327 420.794C328.454 391.597 333.397 383.629 361.423 377.787C361.449 371.499 362.511 361.274 356.739 357.225C351.093 357.746 351.647 370.281 351.664 374.495L332.78 375.24C332.204 355.642 333.624 345.433 355.998 344.04Z" fill="#F9F900"/>
<path d="M359.858 390.854C360.844 391.007 360.356 390.845 361.211 391.74C361.531 397.12 363.101 410.204 359.471 414.817C358.132 416.519 355.922 416.384 353.956 416.569C350.844 413.141 350.048 405.957 351.118 401.507C352.577 395.44 354.617 393.899 359.858 390.854Z" fill="#001B82"/>
<path d="M518.133 344.658C520.162 344.504 522.195 344.375 524.228 344.274C547.169 343.183 550.006 353.353 549.734 373.088L530.947 373.121C531.021 367.374 532.22 360.845 526.156 358.033C521.991 359.104 520.158 362.949 520.684 367.083C522.03 377.247 534.311 379.419 541.38 384.917C551.071 392.456 551.956 400.126 551.205 411.643C550.247 426.322 542.539 430.264 529.45 431.692C500.24 431.756 500.933 422.853 500.977 397.433L519.617 397.469C520.205 403.778 519.262 411.106 522.562 416.397C530.857 421.53 532.36 406.61 530.587 402.818C524.838 390.519 502.051 388.77 500.302 372.813C498.607 357.329 502.168 347.549 518.133 344.658Z" fill="#F9F900"/>
<path d="M457.937 345.221L474.993 345.291C473.261 371.851 467.427 399.227 464.376 425.667C461.604 449.689 453.965 454.639 430.114 452.725C429.684 452.69 429.255 452.653 428.825 452.612L428.543 436.655C433.409 436.681 439.158 437.501 442.566 434.321C443.244 428.547 440.506 415.883 439.353 409.505C436.809 395.684 434.358 381.845 432 367.991C430.855 361.245 428.942 351.763 428.631 345.282H446.648C447.843 360.348 450.993 380.35 451.637 394.448L452.443 394.306L453.778 391.197C454.056 378.164 456.577 358.493 457.937 345.221Z" fill="#F9F900"/>
<path d="M451.638 394.448L452.444 394.306L453.779 391.197C453.612 394.687 453.732 397.479 452.275 400.653C451.388 399.725 451.506 395.719 451.638 394.448Z" fill="#625F47"/>
<path d="M407.452 357.772C410.788 350.783 415.443 343.198 424.66 345.388C426.11 349.044 425.34 361.868 425.235 366.347C401.809 365.858 407.719 383.884 407.832 401.866L407.785 430.395L388.645 430.512C388.12 402.661 388.585 373.316 388.579 345.345L407.905 345.234C407.877 349.309 407.619 353.676 407.452 357.772Z" fill="#F9F900"/>
<path d="M478.588 324.967L499.138 324.931C499.005 338.573 503.622 355.219 489.728 362.704C486.509 363.498 482.04 363.451 478.628 363.548C478.459 358.83 477.442 356.638 481.103 353.486C483.252 353.141 484.326 353.22 485.872 351.843C486.972 349.113 486.762 348.077 486.6 345.222C483.534 343.199 482.646 345.509 479.148 343.778C477.897 340.803 478.524 328.826 478.588 324.967Z" fill="#F9F900"/>
<path d="M891.61 318.283C898.787 317.157 926.29 317.124 933.7 318.152C935.71 319.799 937.765 321.908 939.655 323.739C939.865 328.347 939.767 333.424 939.782 338.07C957.355 340.15 967.697 330.91 981.7 345.23C991.757 332.471 1001.79 337.772 1015.24 338.126C1022.08 338.306 1029.76 337.892 1036.74 337.922C1041.81 340.735 1047.14 344.751 1047.38 350.985C1048.13 374.906 1047.74 398.953 1047.74 422.902C1047.75 436.376 1049.47 447.889 1040.6 458.971C1022.42 472.561 981.61 469.829 977.605 443.512L857.177 443.701C833.275 443.781 808.892 444 784.975 443.595C783.475 443.57 782.132 443.211 781.022 442.286C780.625 441.96 778.195 440.827 778.03 440.865C775.217 441.493 771.895 442.418 769.052 442.934C761.447 444.318 749.725 445.511 742.18 443.442C738.017 442.301 731.095 437.977 727.465 435.766C727.54 435.811 721.315 441.358 719.837 442.101C714.962 444.543 708.872 445.061 703.487 445.851C703.667 450.247 704.47 460.269 703.255 463.825C698.62 467.292 670.922 466.113 665.867 461.471C661.675 457.619 662.252 448.931 662.215 443.757C655.607 444.247 647.05 443.737 640.255 443.506C634.96 439.96 633.52 436.952 633.445 430.665C633.347 422.759 633.632 414.638 633.722 406.74C626.357 409.887 623.53 410.272 615.79 411.122C615.97 421.924 615.955 432.728 615.745 443.53C606.332 443.913 585.827 444.281 577.007 443.327C574.255 440.338 572.972 438.844 570.662 435.521C569.185 404.887 570.805 352.171 570.512 319.718C570.835 319.258 571.165 318.799 571.487 318.339L574.825 317.784C588.475 317.059 602.807 317.579 616.48 317.882C619.562 317.95 621.535 318.363 624.31 319.616C637.112 325.396 630.812 323.539 634.937 318.316C644.882 316.855 661.367 317.478 671.897 317.581C680.785 323.795 678.955 327.643 678.685 337.706C682.015 337.682 685.487 338.051 688.825 337.839C702.67 336.958 713.267 333.605 723.22 345.348C738.04 334.616 755.762 334.015 771.677 342.887L771.707 318.306C792.737 316.896 814.997 317.661 836.14 317.652C841.735 317.65 842.725 319.417 846.167 323.389C846.58 327.834 846.437 333.311 846.445 337.848C865.232 338.664 875.605 333.09 891.73 341.452L891.61 318.283Z" fill="#001B82"/>
<path d="M995.051 344.575C998.418 344.28 1002.67 344.468 1006.11 344.527C1009.95 346.788 1011.57 350.437 1014.67 350.968C1014.69 348.701 1014.72 347.805 1015.13 345.582C1017.65 344.568 1030.47 344.923 1034.25 344.899C1034.01 362.431 1036.57 433.172 1031.28 443.889C1029.22 448.067 1025.16 450.741 1020.81 452.091C1011.5 454.988 999.146 454.196 990.483 449.716C986.111 444.611 986.066 440.736 985.023 434.225C994.901 436.629 996.836 435.018 1004.84 436.234L1006.47 438.946C1016.21 445.283 1014.72 426.472 1014.64 421.664C1012.66 424.072 1010.29 426.932 1007.61 428.559C1004.03 430.734 998.583 431.24 994.578 429.98C991.338 428.961 988.878 426.624 987.288 423.665C983.396 416.421 983.283 363.007 986.231 353.751C987.753 348.974 990.791 346.715 995.051 344.575Z" fill="#F9F900"/>
<path d="M1006.31 359.338C1008.44 359.363 1013.03 359.203 1013.12 362.08C1013.45 371.381 1015.52 408.22 1012.61 414.961C1011.03 415.079 1009.57 414.96 1007.99 414.881C1007.14 414.351 1005.66 413.597 1005.51 412.565C1004.39 404.569 1003.98 364.308 1006.31 359.338Z" fill="#001B82"/>
<path d="M579.722 324.974C623.927 325.204 639.092 318.238 635.964 371.05C634.584 394.432 624.512 398.034 602.454 397.767C601.757 402.667 602.304 424.631 602.342 430.55L579.699 430.54L579.722 324.974Z" fill="#F9F900"/>
<path d="M602.344 341.426C604.849 341.428 611.104 341.233 611.771 344.255C613.429 351.792 614.089 373.544 611.201 380.079C608.059 381.092 605.539 382.335 602.666 380.265C601.691 373.743 602.291 349.314 602.344 341.426Z" fill="#001B82"/>
<path d="M699.46 343.729C711.385 343.167 717.752 345.926 718.337 359.094C719.05 374.841 718.615 390.683 718.757 406.45C718.825 413.772 718.21 421.345 713.335 427.213C706.42 435.537 696.137 432 689.29 425.884C689.485 434.861 689.35 444.243 689.35 453.252L669.715 453.233L669.752 344.582C673.735 344.577 685.255 343.645 687.947 345.366L688.585 349.083L690.092 349.196C694.067 347.07 693.85 345.686 698.627 344.014L699.46 343.729Z" fill="#F9F900"/>
<path d="M692.883 358.306C695.245 358.61 695.807 358.495 697.615 359.876C698.672 362.188 698.898 365.476 698.83 368.281C698.493 383.073 699.873 399.353 697.968 413.889C697.78 415.273 696.22 416.459 695.192 417.511C692.987 416.612 692.515 416.347 690.58 414.967C689.725 413.025 689.537 409.983 689.56 407.703C689.725 392.8 688.795 377.183 690.183 362.401C690.31 361.025 691.96 359.27 692.883 358.306Z" fill="#001B82"/>
<path d="M869.627 343.788C895.915 342.816 890.815 366.068 890.777 385.352C890.657 400.384 890.695 415.417 890.882 430.448L868.607 430.496L868.727 390.824C868.742 383.664 870.257 364.056 864.625 359.551C860.74 358.906 858.88 362.647 858.385 366.045L858.52 430.471L837.617 430.514L837.73 344.645C843.685 344.511 849.242 344.333 855.205 344.65C857.755 346.168 855.542 348.364 857.522 351.897C863.035 346.264 861.872 346.529 869.627 343.788Z" fill="#F9F900"/>
<path d="M929.014 344.543C934.047 344.435 941.142 344.042 945.949 344.768C946.857 346.1 946.654 348.996 946.692 350.768C948.132 351.66 952.767 346.476 954.672 345.759C982.579 335.288 978.627 370.98 978.619 387.166L978.664 430.463L958.017 430.451C958.279 415.986 958.339 401.518 958.197 387.05C958.272 381.751 961.167 357.737 952.444 360.134C947.344 365.445 948.709 381.623 948.724 388.902L948.979 430.47L928.984 430.395C929.509 402.376 929.179 372.653 929.014 344.543Z" fill="#F9F900"/>
<path d="M746.634 343.998C778.922 339.529 773.724 369.971 773.432 390.743C763.832 390.832 754.239 390.775 744.639 390.573C744.677 396.911 743.506 410.856 746.199 415.653C748.711 417.56 749.424 418.355 752.154 416.511C755.154 411.49 754.352 404.881 754.119 399.1C758.529 399.124 769.997 397.819 773.057 399.711L773.304 402.054C773.379 412.526 774.249 427.135 761.042 430.233C713.477 441.431 727.487 399.774 725.147 370.845C723.797 354.068 729.924 345.648 746.634 343.998Z" fill="#F9F900"/>
<path d="M747.332 356.924C756.249 357.909 754.644 368.53 754.089 375.549L752.852 376.41C749.987 376.536 748.652 376.588 745.719 376.259C743.042 372.551 744.362 360.524 747.332 356.924Z" fill="#001B82"/>
<path d="M780.032 325.074L800.74 325.011C801.04 360.054 800.282 395.508 800.98 430.5L779.965 430.488L780.032 325.074Z" fill="#F9F900"/>
<path d="M900.039 344.514L921.541 344.464C921.346 373.16 921.331 401.857 921.511 430.553L899.934 430.353C900.301 401.95 900.024 372.962 900.039 344.514Z" fill="#F9F900"/>
<path d="M808.3 344.471L828.827 344.495L828.805 430.441C822.235 430.626 814.907 430.447 808.277 430.423L808.3 344.471Z" fill="#F9F900"/>
<path d="M642.691 344.484L662.896 344.47L662.791 430.464L642.729 430.523L642.691 344.484Z" fill="#F9F900"/>
<path d="M899.907 324.843L921.694 324.634C921.739 329.211 921.95 334.364 921.365 338.856L899.832 338.868L899.907 324.843Z" fill="#F9F900"/>
<path d="M808.203 324.828L829.421 324.762L829.068 338.726C822.048 338.819 815.028 338.813 808.016 338.711C808.241 334.407 808.158 329.207 808.203 324.828Z" fill="#F9F900"/>
<path d="M642.716 324.907L662.943 324.87L662.951 338.935L642.648 339.045L642.716 324.907Z" fill="#F9F900"/>
<path d="M607.984 467.399C626.104 465.471 627.386 470.945 639.731 474.852C640.414 472.413 640.676 472.002 642.019 469.842C648.064 466.944 672.101 467.391 678.274 471.876C681.056 476.047 680.044 484.105 679.879 489.355C682.901 489.003 685.931 488.689 688.961 488.415C700.211 487.438 708.544 488.394 717.221 495.693C728.996 487.383 741.536 485.869 755.741 489.731C758.704 490.535 761.629 493.431 764.441 493.902C764.681 491.761 764.561 491.333 765.859 489.754C774.469 487.986 797.809 488.434 807.544 488.691C809.284 488.737 812.966 490.522 814.624 491.356C814.676 483.506 814.676 476.371 814.294 468.54C825.386 468.709 837.656 467.496 848.509 468.787C853.654 469.398 855.469 471.543 858.124 475.456C858.266 479.659 858.146 484.356 858.131 488.601C875.089 490.506 882.049 483.291 896.509 494.654C907.249 485.824 915.694 488.912 928.429 488.956L952.286 488.866C953.659 489.733 957.769 492.466 958.226 493.435C962.164 501.764 961.144 543.718 960.506 552.004C965.291 551.97 970.076 552.057 974.854 552.266C977.936 555.329 978.739 556.366 981.199 559.967C981.371 573.032 982.241 583.48 978.656 596.154C971.951 604.271 962.081 603.819 952.646 602.931C948.244 605.396 942.844 606.864 937.841 607.305C919.894 608.882 899.419 607.485 893.051 587.353L781.406 587.302C765.776 587.316 749.779 587.807 734.209 587.588C731.036 587.543 726.064 585.546 723.056 584.379C714.221 588.854 699.364 590.147 689.614 587.557C685.766 586.535 681.994 585.489 678.094 584.601C671.329 589.862 655.451 587.395 647.014 586.609C645.296 586.449 643.234 584.055 642.064 582.726C626.726 591.423 603.754 591.29 589.114 580.813C571.586 568.269 576.866 540.979 576.604 522.205C576.206 493.431 571.301 471.846 607.984 467.399Z" fill="#001B82"/>
<path d="M910.13 495.736C916.782 495.123 922.745 494.069 926.637 499.765C927.117 500.466 927.935 501.09 928.633 501.58C928.835 499.352 928.655 498.43 930.08 496.892C933.612 495.796 941.945 496.28 946.01 496.343C946.01 512.481 948.245 577.75 942.77 587.999C940.917 591.473 937.288 593.483 933.62 594.514C925.49 596.804 913.242 595.959 905.9 591.926C894.522 579.771 903.958 574.243 917.03 578.717C918.47 579.21 919.752 583.676 924.642 584.265C928.76 582.083 928.093 571.58 928.063 567.403C922.955 572.488 913.925 576.52 907.317 572.708C893.12 564.522 902.765 524.618 899.765 510.364C898.415 503.947 905.127 497.529 910.13 495.736Z" fill="#F9F900"/>
<path d="M919.625 510.448C921.507 510.303 922.407 510.442 924.297 510.639C925.145 511.307 926.33 511.995 926.517 512.896C928.002 520.211 928.115 554.247 925.902 559.345C924.125 559.477 923.075 559.36 921.335 559.223C920.405 558.515 919.37 558.004 919.145 556.982C917.57 549.808 917.442 515.394 919.625 510.448Z" fill="#001B82"/>
<path d="M609.208 474.915C644.203 475.424 639.921 490.083 639.763 519.409C632.893 519.085 625.168 519.172 618.231 519.103C618.231 514.126 618.298 509.063 618.178 504.092C618.043 498.534 619.573 489.185 611.728 488.833C604.063 493.472 606.156 549.73 608.803 558.615C610.153 560.334 610.686 560.35 612.823 561.177C620.601 560.203 618.696 543.231 618.613 537.495L618.696 536.213C622.071 534.109 635.323 535.007 639.906 535.127C638.511 552.53 643.213 573.047 618.966 575.721C580.776 580.188 584.556 554.344 585.223 526.253C585.786 502.704 578.466 478.071 609.208 474.915Z" fill="#F9F900"/>
<path d="M734.178 495.807C746.441 494.919 762.416 495.57 764.306 510.241C767.006 531.246 763.668 553.707 766.428 575.077C761.058 574.818 753.386 576.176 749.201 574.395C746.981 572.031 747.693 573.081 746.793 569.465C744.071 568.089 734.883 585.196 721.751 570.181C717.956 561.483 717.251 547.426 722.598 539.118C728.133 530.521 737.171 528.583 746.456 526.564C746.591 520.822 747.933 511.325 741.783 508.329L740.238 508.97C736.398 513.98 737.291 517.813 737.306 524.193L720.026 524.31C720.056 510.53 718.683 500.415 734.178 495.807Z" fill="#F9F900"/>
<path d="M745.638 538.328L746.486 539.504C746.913 545.957 748.098 553.619 744.956 559.319C742.473 561.242 743.508 560.651 739.721 561.014C736.173 556.276 736.151 548.389 739.271 543.54C740.688 541.342 743.478 539.705 745.638 538.328Z" fill="#001B82"/>
<path d="M875.114 495.792C876.411 495.681 877.709 495.603 879.014 495.557C897.764 494.998 893.736 519.859 893.706 532.726C893.579 546.831 893.609 560.937 893.804 575.041C887.924 574.807 880.829 575.007 874.859 575.029L875.009 538.576C875.039 531.257 876.719 514.793 871.109 510.277L869.279 510.62C867.284 512.437 866.286 513.048 865.829 515.706L865.851 574.957L847.304 574.889L847.281 496.575C851.954 496.423 859.296 495.958 863.721 496.516C865.274 498.039 864.591 498.954 864.981 501.949C868.949 501.246 868.101 498.494 874.319 496.092L875.114 495.792Z" fill="#F9F900"/>
<path d="M687.058 495.805C720.981 493.38 715.933 512.458 715.866 539.112L689.188 539.171C688.986 544.957 687.448 561.226 695.136 562.735C699.276 559.587 698.646 550.637 698.571 545.882C702.313 545.823 713.211 545.239 715.783 546.846C715.926 555.053 716.196 571.729 705.283 574.301C677.901 580.81 668.728 570.28 671.428 543.555C673.213 525.872 664.086 502.288 687.058 495.805Z" fill="#F9F900"/>
<path d="M691.866 508.111C693.306 508.243 695.391 508.524 696.374 509.68C699.014 512.785 699.824 523.697 696.974 526.252C694.686 526.284 692.586 526.199 690.306 526.106C686.961 522.573 688.926 511.908 691.866 508.111Z" fill="#001B82"/>
<path d="M797.749 495.791C815.007 494.353 816.552 502.27 816.687 517.263C816.859 536.516 816.192 555.771 817.092 575.005L799.017 575.007C799.039 565.76 801.162 516.252 796.677 511.587C795.649 510.515 795.177 510.62 793.789 510.56C791.607 511.957 791.569 512.187 790.159 514.45C789.604 533.687 790.077 555.582 790.077 575.017C784.219 574.905 777.942 575.036 772.047 575.054C771.244 550.073 771.852 521.8 771.702 496.492C775.062 496.397 785.202 495.494 787.677 497.9C788.344 498.549 787.099 499.968 789.507 501.547L790.144 500.938C793.459 497.805 793.542 497.777 797.749 495.791Z" fill="#F9F900"/>
<path d="M646.04 476.172L665.698 476.119L665.653 574.955L646.07 574.997C645.658 542.35 646.04 508.885 646.04 476.172Z" fill="#F9F900"/>
<path d="M823.062 496.438L841.392 496.506C841.107 520.525 840.538 551.354 841.76 574.976L823.078 574.99L823.062 496.438Z" fill="#F9F900"/>
<path d="M954.111 558.555L969.148 558.517C969.448 571.032 971.833 580.545 962.038 589.54C961.498 589.749 960.958 589.95 960.411 590.145C957.703 591.127 956.091 591.723 953.608 590.555C952.483 585.855 957.943 582.349 959.931 576.729L959.218 575.51C957.343 575.481 956.113 575.673 954.516 574.71C953.428 571.174 954.006 562.634 954.111 558.555Z" fill="#F9F900"/>
<path d="M823.03 475.009L843.213 475L843.062 489.939L823 489.962L823.03 475.009Z" fill="#F9F900"/>
<path d="M472.112 468.761C477.697 468.399 483.831 468.576 489.403 468.299C509.87 467.281 514.266 467.437 514.266 488.857C523.116 489.58 530.811 489.1 539.571 488.235C551.961 487.01 565.836 499.532 567.449 511.472C570.284 532.456 568.949 556.146 568.859 577.608L568.783 587.203L467.189 587.187C445.822 587.214 443.628 593.518 424.456 580.221L420.481 587.182C410.989 587.236 400.261 588.204 390.957 587.004C386.612 586.443 385.439 584.712 383.164 581.412C368.148 590.656 350.698 586.699 333.817 587.482C329.171 587.699 318.545 584.386 318.108 578.832C315.908 550.859 317.779 522.085 317.17 493.999C316.997 486.021 316.733 476.385 317.682 468.839C327.175 468.188 337.026 468.623 346.528 468.428C366.115 468.028 378.562 471.813 388.746 489.333C394.806 489.235 403.626 490.715 408.273 490.519C415.429 490.218 419.716 486.608 427.011 492.205C427.371 492.482 436.563 488.676 439.983 488.321C452.436 487.03 461.906 487.944 472.165 495.574C471.869 486.81 472.063 477.565 472.112 468.761Z" fill="#001B82"/>
<path d="M327.173 476.231C364.194 475.732 382.971 471.121 380.244 516.944C379.408 530.994 381.819 547.4 378.758 561.426C378.068 564.583 375.912 566.78 373.799 569.027C362.347 577.707 342.147 575.107 327.131 575.026C326.189 544.355 326.922 507.196 327.173 476.231Z" fill="#F9F900"/>
<path d="M348.072 491.18C351.857 491.164 354.477 490.617 357.156 493.635C359.295 499.977 359.08 549.938 357.736 558.02C355.184 558.744 351.514 559.607 348.95 559.093C347.61 556.729 348.074 498.652 348.072 491.18Z" fill="#001B82"/>
<path d="M440.223 495.801C464.204 493.874 473.227 499.168 472.872 523.929C472.645 539.819 471.724 559.557 473.912 575.051C467.657 574.864 462.001 575.517 455.599 575.094C453.688 573.869 453.808 572.527 452.958 569.899C446.389 570.417 440.285 584.936 425.955 569.732C420.712 560.038 421.206 538.597 432.359 532.673C438.628 529.344 445.586 527.704 452.423 525.927C452.454 520.5 453.658 510.15 447.176 508.076C441.991 510.319 442.758 519.598 442.85 524.296L424.449 524.396C424.656 509.327 423.574 500.884 440.223 495.801Z" fill="#F9F900"/>
<path d="M450.724 538.197L451.778 538.291C453.618 541.484 453.203 555.368 451.014 558.856C449.608 561.096 447.289 561.224 444.992 561.837C438.504 553.832 441.685 543.089 450.724 538.197Z" fill="#001B82"/>
<path d="M535.1 495.786C536.382 495.675 537.665 495.604 538.955 495.574C559.295 495.25 555.35 520.965 555.297 534.986L555.132 574.987L535.902 574.968L536.09 542.104C536.135 534.654 537.665 516.187 533.307 511.773C530.21 511.162 531.5 511.117 528.32 512.192C526.422 514.498 526.895 514.981 526.452 518.26L526.557 575.022L507.005 574.999L507.004 496.555C512.113 496.608 518.817 495.406 523.647 497.241C524.952 497.736 525.162 499.776 525.447 501.111L526.992 500.894C529.955 498.371 530.742 497.673 534.32 496.118L535.1 495.786Z" fill="#F9F900"/>
<path d="M417.407 495.433C418.185 495.505 418.855 495.826 419.633 496.1C421.007 499.864 420.469 512.456 420.399 517.042C406.127 517.628 404.414 520.009 404.472 534.385C404.526 547.862 404.585 561.455 404.568 574.937C400.494 574.912 390.839 576.199 387.376 574.163C386.508 573.652 386.713 572.173 386.61 570.843L386.59 496.545L404.04 496.382L404.03 507.189C408.223 499.805 409.648 498.72 417.407 495.433Z" fill="#F9F900"/>
<path d="M480.125 496.497L500.121 496.55L500.006 574.948L480.142 574.993L480.125 496.497Z" fill="#F9F900"/>
<path d="M480.046 476L500.219 476.031L500.269 490.906L480 490.891L480.046 476Z" fill="#F9F900"/>
<path d="M1120.89 467.451C1123.03 467.028 1126.16 467.236 1128.4 467.266C1151.82 467.51 1169.29 483.862 1167.75 507.834C1166.83 522.207 1172.18 526.742 1155.95 531.354C1168.02 534.862 1169.91 536.039 1170.5 548.637C1171.45 568.751 1166.32 585.712 1143.56 588.465C1131.52 589.921 1121.15 588.928 1109.51 585.616C1108.76 585.4 1096.3 587.946 1094.06 587.321C1063.36 587.362 1032.67 587.333 1001.98 587.32C996.65 584.618 996.073 583.733 992.788 578.983C991.775 567.613 992.143 552.728 992.21 541.151L992.09 468.688C1004.35 468.576 1017.38 468.285 1029.57 468.833C1032.46 471.103 1034.66 472.898 1036.51 476.148C1042.72 487.08 1035.48 545.222 1040.79 552.685C1043.35 544.847 1041.9 481.743 1042.08 468.717C1052.53 468.411 1067.32 468.238 1077.59 468.943C1088.66 477.164 1086.5 485.614 1086.28 497.937C1089.93 477.02 1099.71 469.485 1120.89 467.451Z" fill="#001B82"/>
<path d="M1116.15 475.525C1120.5 475.175 1124.87 475.01 1129.24 475.031C1158.06 475.234 1155.37 498.176 1155.12 519.285L1131.27 519.146C1131.37 512.176 1133.33 493.44 1127.97 489.135C1127.14 489.021 1126.14 488.711 1125.34 488.997C1123.42 489.683 1122.07 490.636 1121.31 492.597C1119.37 497.549 1119.63 552.849 1121.63 557.458C1122.18 558.713 1122.89 559.667 1124.28 560.052C1126.32 560.619 1128.17 560.254 1129.98 559.265C1133.54 555.394 1132.26 546.208 1132.16 540.461L1132.48 538.265C1135.72 536.428 1151.28 537.239 1156.06 537.326C1156.06 545.778 1156.98 557.598 1152.79 565.06C1145.52 578.023 1120.21 578.93 1108.57 572.764C1094.92 565.631 1095.31 545.109 1096.42 531.447C1098.25 508.84 1087.89 482.724 1116.15 475.525Z" fill="#F9F900"/>
<path d="M1001.52 476.127L1024.11 476.06L1024.13 559.577C1030.57 559.768 1037.59 559.618 1044.08 559.594L1044.17 575.007L1001.42 575.074L1001.52 476.127Z" fill="#F9F900"/>
<path d="M1050.78 476.176L1072.65 476.126L1072.56 560.095C1078.59 559.82 1085.7 559.965 1091.81 559.949C1091.88 562.404 1091.92 564.86 1091.95 567.315C1091.96 569.888 1092.27 573.377 1090.68 574.991C1077.49 574.887 1064.11 575.038 1050.91 575.075C1050.65 542.11 1050.61 509.142 1050.78 476.176Z" fill="#F9F900"/>
<path d="M1180.14 317.789C1186.72 317.564 1210.96 316.741 1215.97 318.8C1220.41 324.964 1218.96 359.734 1218.96 369.187C1219.05 393.944 1218.99 418.701 1218.78 443.457C1210.31 444.064 1200.87 443.54 1192.2 443.904C1185.32 444.192 1177.47 444.246 1170.53 444.221C1168.58 444.213 1161.72 440.615 1159.68 440.699C1157.35 440.795 1154.58 443.805 1151.22 443.82C1126.28 443.932 1103.17 442.728 1078.23 444.42C1052.6 443.686 1049.37 417.649 1051.79 397.658C1052.53 391.524 1054.8 388.101 1058.53 383.452C1054.46 380.33 1052.97 378.208 1052.43 373.1C1049.46 345.697 1070.37 335.574 1094.59 340.717C1096.78 341.181 1100.67 344.102 1102.05 344.666C1104.08 345.498 1107.07 339.257 1110.84 340.306C1114.69 340.158 1119.68 339.886 1123.47 339.896C1136.05 339.929 1142.83 336.747 1153.05 344.81C1161.73 339.146 1164.76 338.871 1174.74 338.411C1174.76 331.94 1173.31 325.966 1175.22 319.889C1177.32 317.753 1176.41 318.436 1180.14 317.789Z" fill="#001B82"/>
<path d="M1183.34 325.076C1189.59 324.9 1196.54 325.05 1202.84 325.054L1202.8 430.511C1198.56 430.574 1188.19 431.525 1184.93 429.54C1182.65 428.148 1184.36 426.813 1182.68 425.564C1182.46 426.027 1182.24 426.488 1182.02 426.946C1180.38 430.215 1180.01 430.079 1176.49 431.199L1175.64 431.463C1173.43 431.56 1171.2 431.636 1168.99 431.568C1165.42 431.459 1162.37 430.508 1160 427.673C1155.76 422.604 1157.08 370.95 1157.52 361.329C1157.72 356.816 1157.84 352.103 1161.58 348.981C1164.76 346.332 1168.58 345.759 1172.57 346.119C1177.56 346.569 1180.37 348.596 1183.49 352.253L1183.34 325.076Z" fill="#F9F900"/>
<path d="M1176.26 359.824C1179.76 360.002 1183.01 360.141 1183.19 364.683C1183.85 380.655 1183.79 396.964 1183.16 412.933C1183.12 413.967 1181.82 415.824 1181.18 416.664C1177.61 416.467 1175.21 416.148 1174.92 412.121C1174.4 404.733 1174.29 396.825 1174.53 389.393C1174.79 381.175 1173.54 367.254 1176.26 359.824Z" fill="#001B82"/>
<path d="M1079.42 346.941C1100.32 346.025 1103.34 352.624 1103.43 372.048C1103.51 391.323 1102.75 411.348 1104.09 430.564C1099.73 430.628 1091.91 431.034 1087.93 430.114C1086.45 428.079 1086.77 426.805 1086.43 424.007C1078.41 432.818 1067.32 437.158 1060.83 423.83C1059.12 415.347 1058.22 398.053 1063.11 390.767C1068.87 382.215 1076.36 380.65 1085.47 378.482C1085.67 373.002 1087.02 362.255 1080.92 359.448C1076.27 361.502 1076.91 370.935 1076.97 375.242L1060.59 375.425C1060.33 359.131 1061.38 349.459 1079.42 346.941Z" fill="#F9F900"/>
<path d="M1085.06 391.698C1086.83 394.384 1086.9 411.503 1084.23 414.806C1082.74 416.639 1080.91 416.559 1078.88 416.913C1075.44 411.54 1075.66 401.773 1078.98 396.431C1080.21 394.471 1083.11 392.865 1085.06 391.698Z" fill="#001B82"/>
<path d="M1138.16 346.209C1146.7 346.764 1150.08 350.387 1151.03 358.882C1151.99 367.529 1151.63 376.389 1151.6 385.095C1151.43 400.218 1151.46 415.343 1151.69 430.465L1134.63 430.478L1134.77 389.83C1134.78 384.237 1136.11 364.822 1131.94 361.335C1127.31 361.089 1126.45 364.887 1126.12 368.56C1125.99 389.241 1126.06 409.923 1126.34 430.602L1109.74 430.435C1109.02 403.712 1109.61 374.468 1109.68 347.552C1114.3 347.451 1118.91 347.417 1123.52 347.448C1126.22 349.21 1123.73 349.396 1125.41 352.314C1129.94 348.999 1131.77 347.094 1137.32 346.322L1138.16 346.209Z" fill="#F9F900"/>
</svg>
